<?xml version="1.0" encoding="UTF-8" standalone="no"?>
<svg
   xmlns:dc="http://purl.org/dc/elements/1.1/"
   xmlns:cc="http://creativecommons.org/ns#"
   xmlns:rdf="http://www.w3.org/1999/02/22-rdf-syntax-ns#"
   xmlns:svg="http://www.w3.org/2000/svg"
   xmlns="http://www.w3.org/2000/svg"
   xmlns:sodipodi="http://sodipodi.sourceforge.net/DTD/sodipodi-0.dtd"
   xmlns:inkscape="http://www.inkscape.org/namespaces/inkscape"
   version="1.1"
   id="Capa_1"
   x="0px"
   y="0px"
   viewBox="0 0 62 63"
   xml:space="preserve"
   sodipodi:docname="add-on.svg"
   width="62"
   height="63"
   inkscape:version="1.0 (1.0+r72)"><metadata
   id="metadata41"><rdf:RDF><cc:Work
       rdf:about=""><dc:format>image/svg+xml</dc:format><dc:type
         rdf:resource="http://purl.org/dc/dcmitype/StillImage" /><dc:title /></cc:Work></rdf:RDF></metadata><defs
   id="defs39" /><sodipodi:namedview
   inkscape:document-rotation="0"
   pagecolor="#ffffff"
   bordercolor="#666666"
   borderopacity="1"
   objecttolerance="10"
   gridtolerance="10"
   guidetolerance="10"
   inkscape:pageopacity="0"
   inkscape:pageshadow="2"
   inkscape:window-width="1294"
   inkscape:window-height="704"
   id="namedview37"
   showgrid="false"
   inkscape:zoom="8.2698413"
   inkscape:cx="31"
   inkscape:cy="31.5"
   inkscape:window-x="72"
   inkscape:window-y="27"
   inkscape:window-maximized="1"
   inkscape:current-layer="Capa_1" />
<g
   style="fill:#ffffff;fill-opacity:1"
   id="g4"
   transform="matrix(0.09985416,0,0,0.09985416,0.55754705,0.51640213)">
	<path
   style="fill:#ffffff;fill-opacity:1"
   d="m 492.986,280.991 c -25.208,0 -49.373,7.874 -69.524,22.431 v -81.376 c 0,-12.302 -10.011,-22.312 -22.315,-22.312 h -92.462 c 14.317,-20.05 22.06,-44.032 22.06,-68.997 0,-65.624 -53.387,-119.013 -119.009,-119.013 -65.624,0 -119.014,53.388 -119.014,119.013 0,24.963 7.743,48.946 22.054,68.997 H 22.316 C 10.011,199.734 0,209.744 0,222.046 V 328.41 c 0,3.049 1.86,5.79 4.696,6.913 2.837,1.127 6.068,0.406 8.158,-1.813 16.482,-17.497 38.751,-27.132 62.708,-27.132 47.522,0 86.184,38.664 86.184,86.187 0,47.525 -38.662,86.189 -86.184,86.189 -23.957,0 -46.228,-9.635 -62.708,-27.132 -2.09,-2.217 -5.321,-2.937 -8.158,-1.813 C 1.86,450.935 0,453.674 0,456.723 V 577.96 c 0,12.306 10.011,22.315 22.315,22.315 h 378.832 c 12.304,0 22.315,-10.011 22.315,-22.315 v -81.376 c 20.148,14.556 44.314,22.429 69.524,22.429 C 558.61,519.013 612,465.625 612,400.002 612,334.381 558.61,280.991 492.986,280.991 Z"
   id="path2" />
</g>
<g
   id="g6">
</g>
<g
   id="g8">
</g>
<g
   id="g10">
</g>
<g
   id="g12">
</g>
<g
   id="g14">
</g>
<g
   id="g16">
</g>
<g
   id="g18">
</g>
<g
   id="g20">
</g>
<g
   id="g22">
</g>
<g
   id="g24">
</g>
<g
   id="g26">
</g>
<g
   id="g28">
</g>
<g
   id="g30">
</g>
<g
   id="g32">
</g>
<g
   id="g34">
</g>
</svg>
