<?xml version="1.0" encoding="UTF-8" standalone="no"?>
<svg
   xmlns:dc="http://purl.org/dc/elements/1.1/"
   xmlns:cc="http://creativecommons.org/ns#"
   xmlns:rdf="http://www.w3.org/1999/02/22-rdf-syntax-ns#"
   xmlns:svg="http://www.w3.org/2000/svg"
   xmlns="http://www.w3.org/2000/svg"
   xmlns:sodipodi="http://sodipodi.sourceforge.net/DTD/sodipodi-0.dtd"
   xmlns:inkscape="http://www.inkscape.org/namespaces/inkscape"
   id="Layer_1"
   version="1.1"
   viewBox="0 0 77 80"
   xml:space="preserve"
   sodipodi:docname="tool3.svg"
   inkscape:version="0.92.5 (2060ec1f9f, 2020-04-08)"
   width="77"
   height="80"><metadata
   id="metadata21"><rdf:RDF><cc:Work
       rdf:about=""><dc:format>image/svg+xml</dc:format><dc:type
         rdf:resource="http://purl.org/dc/dcmitype/StillImage" /><dc:title></dc:title></cc:Work></rdf:RDF></metadata><defs
   id="defs19" /><sodipodi:namedview
   pagecolor="#ffffff"
   bordercolor="#666666"
   borderopacity="1"
   objecttolerance="10"
   gridtolerance="10"
   guidetolerance="10"
   inkscape:pageopacity="0"
   inkscape:pageshadow="2"
   inkscape:window-width="1294"
   inkscape:window-height="704"
   id="namedview17"
   showgrid="false"
   inkscape:zoom="4.4278353"
   inkscape:cx="51.265242"
   inkscape:cy="33.234019"
   inkscape:window-x="72"
   inkscape:window-y="27"
   inkscape:window-maximized="1"
   inkscape:current-layer="Layer_1" /><style
   type="text/css"
   id="style2">
	.st0{fill:none;stroke:#010000;stroke-width:4;stroke-linecap:round;stroke-miterlimit:10;}
	.st1{fill:none;stroke:#010000;stroke-width:4;stroke-linecap:round;stroke-linejoin:round;stroke-miterlimit:10;}
	.st2{fill:none;stroke:#010000;stroke-width:4;stroke-linejoin:round;stroke-miterlimit:10;}
	.st3{fill:none;stroke:#010000;stroke-width:6;stroke-linecap:round;stroke-linejoin:round;stroke-miterlimit:10;}
	.st4{fill:#010000;}
	.st5{fill:none;stroke:#010000;stroke-width:3.8974;stroke-linejoin:round;stroke-miterlimit:10;}
	.st6{fill:none;stroke:#010000;stroke-width:2;stroke-linecap:round;stroke-linejoin:round;stroke-miterlimit:10;}
	.st7{fill:#010000;stroke:#010000;stroke-width:2;stroke-miterlimit:10;}
	.st8{opacity:0.75;}
	.st9{fill:none;stroke:#010000;stroke-width:2;stroke-linejoin:round;stroke-miterlimit:10;}
	.st10{fill:none;stroke:#010000;stroke-width:6;stroke-linejoin:round;stroke-miterlimit:10;}
	.st11{fill:none;stroke:#010000;stroke-width:3;stroke-linejoin:round;stroke-miterlimit:10;}
	.st12{fill:none;stroke:#010000;stroke-width:3.9497;stroke-linejoin:round;stroke-miterlimit:10;}
	.st13{fill:none;stroke:#010000;stroke-width:1.9008;stroke-linejoin:round;stroke-miterlimit:10;}
	.st14{fill:none;stroke:#010000;stroke-width:1.9935;stroke-linejoin:round;stroke-miterlimit:10;}
	.st15{fill:none;stroke:#010000;stroke-width:4;stroke-miterlimit:10;}
	.st16{fill:none;stroke:#010000;stroke-width:1.9048;stroke-linecap:round;stroke-linejoin:round;stroke-miterlimit:10;}
	.st17{fill:none;stroke:#010000;stroke-width:1.934;stroke-linecap:round;stroke-linejoin:round;stroke-miterlimit:10;}
	.st18{fill:none;stroke:#010000;stroke-width:1.9684;stroke-linecap:round;stroke-linejoin:round;stroke-miterlimit:10;}
	.st19{fill:none;stroke:#010000;stroke-width:1.9343;stroke-linecap:round;stroke-linejoin:round;stroke-miterlimit:10;}
</style><path
   class="st1"
   d="m 49.141112,56.380767 h 11.709654 c 1.421886,0 2.509211,1.087325 2.509211,2.509211 v 0 c 0,1.421887 -1.087325,2.509212 -2.509211,2.509212 H 15.684959 c -1.338246,0 -2.509212,-1.087325 -2.509212,-2.509212 v 0 c 0,-1.421886 1.087325,-2.509211 2.509212,-2.509211 H 39.94067"
   id="path4"
   style="fill:none;fill-opacity:1;stroke:#ffffff;stroke-width:3.34561539;stroke-linecap:round;stroke-linejoin:round;stroke-miterlimit:10;stroke-opacity:1"
   inkscape:connector-curvature="0" /><polygon
   class="st1"
   points="62,78 54.7,92 41.3,92 34,78 "
   id="polygon6"
   style="fill:none;fill-opacity:1;stroke:#ffffff;stroke-width:4;stroke-linecap:round;stroke-linejoin:round;stroke-miterlimit:10;stroke-opacity:1"
   transform="matrix(0.83640383,0,0,0.83640383,-1.879522,1.178114)" /><path
   class="st1"
   d="m 51.650324,56.380767 h 0.418202 c 1.589167,0 2.927413,-1.338246 2.927413,-2.927414 V 48.016728 H 41.613478 c 0,0 -2.509212,0.669123 -2.509212,-2.509211 0,-2.425571 2.509212,-2.509212 2.509212,-2.509212 h 13.382461 v -4.182019 h -7.527634 c 0,0 -2.509212,0 -2.509212,-2.509211 0,-2.425571 2.509212,-2.509212 2.509212,-2.509212 h 7.527634 v -7.945836 c 0,-1.589167 -1.338246,-2.927414 -2.927413,-2.927414 H 24.467199 c -1.589167,0 -2.927413,1.338247 -2.927413,2.927414 v 27.601326 c 0,1.589168 1.338246,2.927414 2.927413,2.927414 h 0.418202"
   id="path8"
   style="fill:none;fill-opacity:1;stroke:#ffffff;stroke-width:3.34561539;stroke-linecap:round;stroke-linejoin:round;stroke-miterlimit:10;stroke-opacity:1"
   inkscape:connector-curvature="0" /><polygon
   class="st1"
   points="33,26 37.7,17 46.3,17 51,26 "
   id="polygon10"
   style="fill:none;fill-opacity:1;stroke:#ffffff;stroke-width:4;stroke-linecap:round;stroke-linejoin:round;stroke-miterlimit:10;stroke-opacity:1"
   transform="matrix(0.83640383,0,0,0.83640383,-1.879522,1.178114)" /><g
   id="g14"
   style="fill:none;fill-opacity:1;stroke:#ffffff;stroke-opacity:1"
   transform="matrix(0.83640383,0,0,0.83640383,-1.879522,1.178114)"><path
     class="st2"
     d="m 42,14 c 0,0 0,-1.4 0,-3 0,-1.6 1.8,-3 4,-3 h 4 c 2.2,0 4,-1.3 4,-3 0,-1.7 0,-3 0,-3"
     id="path12"
     style="fill:none;fill-opacity:1;stroke:#ffffff;stroke-width:4;stroke-linejoin:round;stroke-miterlimit:10;stroke-opacity:1"
     inkscape:connector-curvature="0" /></g><circle
   id="circle46"
   cx="45.9701"
   cy="36.750202"
   r="15.359614"
   style="fill:#ffffff;stroke:#000000;stroke-width:0.3657051;stroke-opacity:1" /><text
   y="10.9092"
   x="-19.730001"
   style="font-style:normal;font-variant:normal;font-weight:normal;font-stretch:normal;font-size:30.76356125px;font-family:sans-serif;-inkscape-font-specification:sans-serif;fill:#000000;stroke-width:1.18321407"
   id="1"
   font-size="26"
   font-weight="500"
   transform="scale(0.99283442,1.0072173)"><tspan
     x="36.613319"
     y="47.588829"
     id="tspan48"
     style="font-style:normal;font-variant:normal;font-weight:normal;font-stretch:normal;font-family:sans-serif;-inkscape-font-specification:sans-serif;stroke-width:1.18321407">3</tspan></text>






</svg>